<mxfile host="app.diagrams.net" modified="2021-01-25T07:07:41.207Z" agent="5.0 (X11; Linux x86_64) AppleWebKit/537.36 (KHTML, like Gecko) Chrome/88.0.4324.96 Safari/537.36" etag="UygwDTno_KTDd2cc5pqj" version="14.2.7" type="github" pages="4">
  <diagram id="QOa6z6X2At9Oge8IAuHY" name="Main">
    <mxGraphModel dx="965" dy="1571" grid="1" gridSize="10" guides="1" tooltips="1" connect="1" arrows="1" fold="1" page="1" pageScale="1" pageWidth="850" pageHeight="1100" math="0" shadow="0">
      <root>
        <mxCell id="0" />
        <mxCell id="1" parent="0" />
        <mxCell id="o-RJejRpc0cjQsUebl2T-1" value="" style="rounded=0;whiteSpace=wrap;html=1;" vertex="1" parent="1">
          <mxGeometry x="40" y="50" width="80" height="430" as="geometry" />
        </mxCell>
        <mxCell id="o-RJejRpc0cjQsUebl2T-2" value="" style="rounded=0;whiteSpace=wrap;html=1;" vertex="1" parent="1">
          <mxGeometry x="45" y="-20" width="800" height="60" as="geometry" />
        </mxCell>
        <mxCell id="o-RJejRpc0cjQsUebl2T-3" value="Magenta&amp;nbsp;&lt;br&gt;CRM" style="text;html=1;strokeColor=none;fillColor=none;align=center;verticalAlign=middle;whiteSpace=wrap;rounded=0;" vertex="1" parent="1">
          <mxGeometry x="70" width="40" height="20" as="geometry" />
        </mxCell>
        <mxCell id="o-RJejRpc0cjQsUebl2T-4" value="DEALS" style="ellipse;shape=cloud;whiteSpace=wrap;html=1;" vertex="1" parent="1">
          <mxGeometry x="40" y="60" width="70" height="60" as="geometry" />
        </mxCell>
        <mxCell id="o-RJejRpc0cjQsUebl2T-5" value="ACTIVITES" style="ellipse;shape=cloud;whiteSpace=wrap;html=1;" vertex="1" parent="1">
          <mxGeometry x="35" y="300" width="85" height="60" as="geometry" />
        </mxCell>
        <mxCell id="o-RJejRpc0cjQsUebl2T-6" value="PRODUCT" style="ellipse;shape=cloud;whiteSpace=wrap;html=1;" vertex="1" parent="1">
          <mxGeometry x="40" y="220" width="80" height="60" as="geometry" />
        </mxCell>
        <mxCell id="o-RJejRpc0cjQsUebl2T-7" value="COMPANIES" style="ellipse;shape=cloud;whiteSpace=wrap;html=1;" vertex="1" parent="1">
          <mxGeometry x="32.5" y="140" width="85" height="70" as="geometry" />
        </mxCell>
        <mxCell id="o-RJejRpc0cjQsUebl2T-9" value="uSER account" style="shape=umlActor;verticalLabelPosition=bottom;verticalAlign=top;html=1;outlineConnect=0;" vertex="1" parent="1">
          <mxGeometry x="790" y="-10" width="10" height="20" as="geometry" />
        </mxCell>
        <mxCell id="4M_cyCe8TP4XShT10oTq-1" value="" style="html=1;aspect=fixed;strokeColor=none;shadow=0;align=center;verticalAlign=top;fillColor=#3B8DF1;shape=mxgraph.gcp2.search" vertex="1" parent="1">
          <mxGeometry x="690" y="-5" width="29.7" height="30" as="geometry" />
        </mxCell>
      </root>
    </mxGraphModel>
  </diagram>
  <diagram id="2hIq2uxbDtvf1ngleDAS" name="Deals">
    <mxGraphModel dx="965" dy="471" grid="1" gridSize="10" guides="1" tooltips="1" connect="1" arrows="1" fold="1" page="1" pageScale="1" pageWidth="850" pageHeight="1100" math="0" shadow="0">
      <root>
        <mxCell id="5MMaR8HTmtrozJFYy1v1-0" />
        <mxCell id="5MMaR8HTmtrozJFYy1v1-1" parent="5MMaR8HTmtrozJFYy1v1-0" />
        <mxCell id="LGKJ2FdRTAFwp8FfndiB-0" value="" style="shape=table;html=1;whiteSpace=wrap;startSize=0;container=1;collapsible=0;childLayout=tableLayout;" vertex="1" parent="5MMaR8HTmtrozJFYy1v1-1">
          <mxGeometry x="40" y="80" width="720" height="240" as="geometry" />
        </mxCell>
        <mxCell id="LGKJ2FdRTAFwp8FfndiB-1" value="" style="shape=partialRectangle;html=1;whiteSpace=wrap;collapsible=0;dropTarget=0;pointerEvents=0;fillColor=none;top=0;left=0;bottom=0;right=0;points=[[0,0.5],[1,0.5]];portConstraint=eastwest;" vertex="1" parent="LGKJ2FdRTAFwp8FfndiB-0">
          <mxGeometry width="720" height="48" as="geometry" />
        </mxCell>
        <mxCell id="LGKJ2FdRTAFwp8FfndiB-2" value="&lt;b&gt;Deals Name&lt;/b&gt;" style="shape=partialRectangle;html=1;whiteSpace=wrap;connectable=0;overflow=hidden;fillColor=none;top=0;left=0;bottom=0;right=0;strokeWidth=2;" vertex="1" parent="LGKJ2FdRTAFwp8FfndiB-1">
          <mxGeometry width="120" height="48" as="geometry" />
        </mxCell>
        <mxCell id="LGKJ2FdRTAFwp8FfndiB-3" value="&lt;b&gt;Stage&lt;/b&gt;" style="shape=partialRectangle;html=1;whiteSpace=wrap;connectable=0;overflow=hidden;fillColor=none;top=0;left=0;bottom=0;right=0;" vertex="1" parent="LGKJ2FdRTAFwp8FfndiB-1">
          <mxGeometry x="120" width="120" height="48" as="geometry" />
        </mxCell>
        <mxCell id="LGKJ2FdRTAFwp8FfndiB-4" value="&lt;b&gt;Contact/Companies&lt;/b&gt;" style="shape=partialRectangle;html=1;whiteSpace=wrap;connectable=0;overflow=hidden;fillColor=none;top=0;left=0;bottom=0;right=0;" vertex="1" parent="LGKJ2FdRTAFwp8FfndiB-1">
          <mxGeometry x="240" width="120" height="48" as="geometry" />
        </mxCell>
        <mxCell id="LGKJ2FdRTAFwp8FfndiB-5" value="&lt;b&gt;Amount&lt;/b&gt;" style="shape=partialRectangle;html=1;whiteSpace=wrap;connectable=0;overflow=hidden;fillColor=none;top=0;left=0;bottom=0;right=0;" vertex="1" parent="LGKJ2FdRTAFwp8FfndiB-1">
          <mxGeometry x="360" width="120" height="48" as="geometry" />
        </mxCell>
        <mxCell id="LGKJ2FdRTAFwp8FfndiB-6" value="&lt;b&gt;Closeing Date&lt;/b&gt;" style="shape=partialRectangle;html=1;whiteSpace=wrap;connectable=0;overflow=hidden;fillColor=none;top=0;left=0;bottom=0;right=0;" vertex="1" parent="LGKJ2FdRTAFwp8FfndiB-1">
          <mxGeometry x="480" width="120" height="48" as="geometry" />
        </mxCell>
        <mxCell id="LGKJ2FdRTAFwp8FfndiB-7" value="&lt;b&gt;Created&lt;/b&gt;" style="shape=partialRectangle;html=1;whiteSpace=wrap;connectable=0;overflow=hidden;fillColor=none;top=0;left=0;bottom=0;right=0;" vertex="1" parent="LGKJ2FdRTAFwp8FfndiB-1">
          <mxGeometry x="600" width="120" height="48" as="geometry" />
        </mxCell>
        <mxCell id="LGKJ2FdRTAFwp8FfndiB-8" value="" style="shape=partialRectangle;html=1;whiteSpace=wrap;collapsible=0;dropTarget=0;pointerEvents=0;fillColor=none;top=0;left=0;bottom=0;right=0;points=[[0,0.5],[1,0.5]];portConstraint=eastwest;" vertex="1" parent="LGKJ2FdRTAFwp8FfndiB-0">
          <mxGeometry y="48" width="720" height="48" as="geometry" />
        </mxCell>
        <mxCell id="LGKJ2FdRTAFwp8FfndiB-9" value="BI" style="shape=partialRectangle;html=1;whiteSpace=wrap;connectable=0;overflow=hidden;fillColor=none;top=0;left=0;bottom=0;right=0;" vertex="1" parent="LGKJ2FdRTAFwp8FfndiB-8">
          <mxGeometry width="120" height="48" as="geometry" />
        </mxCell>
        <mxCell id="LGKJ2FdRTAFwp8FfndiB-10" value="Negotiation" style="shape=partialRectangle;html=1;whiteSpace=wrap;connectable=0;overflow=hidden;fillColor=none;top=0;left=0;bottom=0;right=0;" vertex="1" parent="LGKJ2FdRTAFwp8FfndiB-8">
          <mxGeometry x="120" width="120" height="48" as="geometry" />
        </mxCell>
        <mxCell id="LGKJ2FdRTAFwp8FfndiB-11" value="Magenta" style="shape=partialRectangle;html=1;whiteSpace=wrap;connectable=0;overflow=hidden;fillColor=none;top=0;left=0;bottom=0;right=0;" vertex="1" parent="LGKJ2FdRTAFwp8FfndiB-8">
          <mxGeometry x="240" width="120" height="48" as="geometry" />
        </mxCell>
        <mxCell id="LGKJ2FdRTAFwp8FfndiB-12" value="10,000" style="shape=partialRectangle;html=1;whiteSpace=wrap;connectable=0;overflow=hidden;fillColor=none;top=0;left=0;bottom=0;right=0;" vertex="1" parent="LGKJ2FdRTAFwp8FfndiB-8">
          <mxGeometry x="360" width="120" height="48" as="geometry" />
        </mxCell>
        <mxCell id="LGKJ2FdRTAFwp8FfndiB-13" value="14-02-21" style="shape=partialRectangle;html=1;whiteSpace=wrap;connectable=0;overflow=hidden;fillColor=none;top=0;left=0;bottom=0;right=0;" vertex="1" parent="LGKJ2FdRTAFwp8FfndiB-8">
          <mxGeometry x="480" width="120" height="48" as="geometry" />
        </mxCell>
        <mxCell id="LGKJ2FdRTAFwp8FfndiB-14" value="1min ago" style="shape=partialRectangle;html=1;whiteSpace=wrap;connectable=0;overflow=hidden;fillColor=none;top=0;left=0;bottom=0;right=0;" vertex="1" parent="LGKJ2FdRTAFwp8FfndiB-8">
          <mxGeometry x="600" width="120" height="48" as="geometry" />
        </mxCell>
        <mxCell id="LGKJ2FdRTAFwp8FfndiB-15" value="" style="shape=partialRectangle;html=1;whiteSpace=wrap;collapsible=0;dropTarget=0;pointerEvents=0;fillColor=none;top=0;left=0;bottom=0;right=0;points=[[0,0.5],[1,0.5]];portConstraint=eastwest;" vertex="1" parent="LGKJ2FdRTAFwp8FfndiB-0">
          <mxGeometry y="96" width="720" height="48" as="geometry" />
        </mxCell>
        <mxCell id="LGKJ2FdRTAFwp8FfndiB-16" value="" style="shape=partialRectangle;html=1;whiteSpace=wrap;connectable=0;overflow=hidden;fillColor=none;top=0;left=0;bottom=0;right=0;" vertex="1" parent="LGKJ2FdRTAFwp8FfndiB-15">
          <mxGeometry width="120" height="48" as="geometry" />
        </mxCell>
        <mxCell id="LGKJ2FdRTAFwp8FfndiB-17" value="" style="shape=partialRectangle;html=1;whiteSpace=wrap;connectable=0;overflow=hidden;fillColor=none;top=0;left=0;bottom=0;right=0;" vertex="1" parent="LGKJ2FdRTAFwp8FfndiB-15">
          <mxGeometry x="120" width="120" height="48" as="geometry" />
        </mxCell>
        <mxCell id="LGKJ2FdRTAFwp8FfndiB-18" value="" style="shape=partialRectangle;html=1;whiteSpace=wrap;connectable=0;overflow=hidden;fillColor=none;top=0;left=0;bottom=0;right=0;" vertex="1" parent="LGKJ2FdRTAFwp8FfndiB-15">
          <mxGeometry x="240" width="120" height="48" as="geometry" />
        </mxCell>
        <mxCell id="LGKJ2FdRTAFwp8FfndiB-19" value="" style="shape=partialRectangle;html=1;whiteSpace=wrap;connectable=0;overflow=hidden;fillColor=none;top=0;left=0;bottom=0;right=0;" vertex="1" parent="LGKJ2FdRTAFwp8FfndiB-15">
          <mxGeometry x="360" width="120" height="48" as="geometry" />
        </mxCell>
        <mxCell id="LGKJ2FdRTAFwp8FfndiB-20" value="" style="shape=partialRectangle;html=1;whiteSpace=wrap;connectable=0;overflow=hidden;fillColor=none;top=0;left=0;bottom=0;right=0;" vertex="1" parent="LGKJ2FdRTAFwp8FfndiB-15">
          <mxGeometry x="480" width="120" height="48" as="geometry" />
        </mxCell>
        <mxCell id="LGKJ2FdRTAFwp8FfndiB-21" value="" style="shape=partialRectangle;html=1;whiteSpace=wrap;connectable=0;overflow=hidden;fillColor=none;top=0;left=0;bottom=0;right=0;" vertex="1" parent="LGKJ2FdRTAFwp8FfndiB-15">
          <mxGeometry x="600" width="120" height="48" as="geometry" />
        </mxCell>
        <mxCell id="LGKJ2FdRTAFwp8FfndiB-22" value="" style="shape=partialRectangle;html=1;whiteSpace=wrap;collapsible=0;dropTarget=0;pointerEvents=0;fillColor=none;top=0;left=0;bottom=0;right=0;points=[[0,0.5],[1,0.5]];portConstraint=eastwest;" vertex="1" parent="LGKJ2FdRTAFwp8FfndiB-0">
          <mxGeometry y="144" width="720" height="48" as="geometry" />
        </mxCell>
        <mxCell id="LGKJ2FdRTAFwp8FfndiB-23" value="" style="shape=partialRectangle;html=1;whiteSpace=wrap;connectable=0;overflow=hidden;fillColor=none;top=0;left=0;bottom=0;right=0;" vertex="1" parent="LGKJ2FdRTAFwp8FfndiB-22">
          <mxGeometry width="120" height="48" as="geometry" />
        </mxCell>
        <mxCell id="LGKJ2FdRTAFwp8FfndiB-24" value="" style="shape=partialRectangle;html=1;whiteSpace=wrap;connectable=0;overflow=hidden;fillColor=none;top=0;left=0;bottom=0;right=0;" vertex="1" parent="LGKJ2FdRTAFwp8FfndiB-22">
          <mxGeometry x="120" width="120" height="48" as="geometry" />
        </mxCell>
        <mxCell id="LGKJ2FdRTAFwp8FfndiB-25" value="" style="shape=partialRectangle;html=1;whiteSpace=wrap;connectable=0;overflow=hidden;fillColor=none;top=0;left=0;bottom=0;right=0;" vertex="1" parent="LGKJ2FdRTAFwp8FfndiB-22">
          <mxGeometry x="240" width="120" height="48" as="geometry" />
        </mxCell>
        <mxCell id="LGKJ2FdRTAFwp8FfndiB-26" value="" style="shape=partialRectangle;html=1;whiteSpace=wrap;connectable=0;overflow=hidden;fillColor=none;top=0;left=0;bottom=0;right=0;" vertex="1" parent="LGKJ2FdRTAFwp8FfndiB-22">
          <mxGeometry x="360" width="120" height="48" as="geometry" />
        </mxCell>
        <mxCell id="LGKJ2FdRTAFwp8FfndiB-27" value="" style="shape=partialRectangle;html=1;whiteSpace=wrap;connectable=0;overflow=hidden;fillColor=none;top=0;left=0;bottom=0;right=0;" vertex="1" parent="LGKJ2FdRTAFwp8FfndiB-22">
          <mxGeometry x="480" width="120" height="48" as="geometry" />
        </mxCell>
        <mxCell id="LGKJ2FdRTAFwp8FfndiB-28" value="" style="shape=partialRectangle;html=1;whiteSpace=wrap;connectable=0;overflow=hidden;fillColor=none;top=0;left=0;bottom=0;right=0;" vertex="1" parent="LGKJ2FdRTAFwp8FfndiB-22">
          <mxGeometry x="600" width="120" height="48" as="geometry" />
        </mxCell>
        <mxCell id="LGKJ2FdRTAFwp8FfndiB-29" value="" style="shape=partialRectangle;html=1;whiteSpace=wrap;collapsible=0;dropTarget=0;pointerEvents=0;fillColor=none;top=0;left=0;bottom=0;right=0;points=[[0,0.5],[1,0.5]];portConstraint=eastwest;" vertex="1" parent="LGKJ2FdRTAFwp8FfndiB-0">
          <mxGeometry y="192" width="720" height="48" as="geometry" />
        </mxCell>
        <mxCell id="LGKJ2FdRTAFwp8FfndiB-30" value="" style="shape=partialRectangle;html=1;whiteSpace=wrap;connectable=0;overflow=hidden;fillColor=none;top=0;left=0;bottom=0;right=0;" vertex="1" parent="LGKJ2FdRTAFwp8FfndiB-29">
          <mxGeometry width="120" height="48" as="geometry" />
        </mxCell>
        <mxCell id="LGKJ2FdRTAFwp8FfndiB-31" value="" style="shape=partialRectangle;html=1;whiteSpace=wrap;connectable=0;overflow=hidden;fillColor=none;top=0;left=0;bottom=0;right=0;" vertex="1" parent="LGKJ2FdRTAFwp8FfndiB-29">
          <mxGeometry x="120" width="120" height="48" as="geometry" />
        </mxCell>
        <mxCell id="LGKJ2FdRTAFwp8FfndiB-32" value="" style="shape=partialRectangle;html=1;whiteSpace=wrap;connectable=0;overflow=hidden;fillColor=none;top=0;left=0;bottom=0;right=0;" vertex="1" parent="LGKJ2FdRTAFwp8FfndiB-29">
          <mxGeometry x="240" width="120" height="48" as="geometry" />
        </mxCell>
        <mxCell id="LGKJ2FdRTAFwp8FfndiB-33" value="" style="shape=partialRectangle;html=1;whiteSpace=wrap;connectable=0;overflow=hidden;fillColor=none;top=0;left=0;bottom=0;right=0;" vertex="1" parent="LGKJ2FdRTAFwp8FfndiB-29">
          <mxGeometry x="360" width="120" height="48" as="geometry" />
        </mxCell>
        <mxCell id="LGKJ2FdRTAFwp8FfndiB-34" value="" style="shape=partialRectangle;html=1;whiteSpace=wrap;connectable=0;overflow=hidden;fillColor=none;top=0;left=0;bottom=0;right=0;" vertex="1" parent="LGKJ2FdRTAFwp8FfndiB-29">
          <mxGeometry x="480" width="120" height="48" as="geometry" />
        </mxCell>
        <mxCell id="LGKJ2FdRTAFwp8FfndiB-35" value="" style="shape=partialRectangle;html=1;whiteSpace=wrap;connectable=0;overflow=hidden;fillColor=none;top=0;left=0;bottom=0;right=0;" vertex="1" parent="LGKJ2FdRTAFwp8FfndiB-29">
          <mxGeometry x="600" width="120" height="48" as="geometry" />
        </mxCell>
        <mxCell id="LGKJ2FdRTAFwp8FfndiB-37" value="" style="shape=doubleArrow;direction=south;whiteSpace=wrap;html=1;" vertex="1" parent="5MMaR8HTmtrozJFYy1v1-1">
          <mxGeometry x="140" y="90" width="10" height="30" as="geometry" />
        </mxCell>
        <mxCell id="LGKJ2FdRTAFwp8FfndiB-38" value="" style="shape=doubleArrow;direction=south;whiteSpace=wrap;html=1;" vertex="1" parent="5MMaR8HTmtrozJFYy1v1-1">
          <mxGeometry x="740" y="90" width="10" height="30" as="geometry" />
        </mxCell>
        <mxCell id="LGKJ2FdRTAFwp8FfndiB-39" value="" style="shape=doubleArrow;direction=south;whiteSpace=wrap;html=1;" vertex="1" parent="5MMaR8HTmtrozJFYy1v1-1">
          <mxGeometry x="500" y="90" width="10" height="30" as="geometry" />
        </mxCell>
        <mxCell id="LGKJ2FdRTAFwp8FfndiB-40" value="" style="shape=doubleArrow;direction=south;whiteSpace=wrap;html=1;" vertex="1" parent="5MMaR8HTmtrozJFYy1v1-1">
          <mxGeometry x="620" y="90" width="10" height="30" as="geometry" />
        </mxCell>
        <mxCell id="LGKJ2FdRTAFwp8FfndiB-41" value="" style="shape=doubleArrow;direction=south;whiteSpace=wrap;html=1;" vertex="1" parent="5MMaR8HTmtrozJFYy1v1-1">
          <mxGeometry x="260" y="90" width="10" height="30" as="geometry" />
        </mxCell>
        <mxCell id="yfawPDBMTOWphZqOjl_f-1" value="" style="image;image=img/lib/atlassian/Jira_Core_Logo.svg;strokeWidth=2;" vertex="1" parent="5MMaR8HTmtrozJFYy1v1-1">
          <mxGeometry x="60" y="10" width="40" height="50" as="geometry" />
        </mxCell>
        <mxCell id="yfawPDBMTOWphZqOjl_f-2" value="&lt;font style=&quot;font-size: 17px&quot; face=&quot;Courier New&quot;&gt;Deals&lt;/font&gt;" style="text;html=1;strokeColor=none;fillColor=none;align=center;verticalAlign=middle;whiteSpace=wrap;rounded=0;" vertex="1" parent="5MMaR8HTmtrozJFYy1v1-1">
          <mxGeometry x="90" y="10" width="90" height="45" as="geometry" />
        </mxCell>
        <mxCell id="yfawPDBMTOWphZqOjl_f-3" value="&lt;b&gt;&lt;font style=&quot;font-size: 17px&quot; face=&quot;Comic Sans MS&quot;&gt;ADD&lt;/font&gt;&lt;/b&gt;" style="ellipse;whiteSpace=wrap;html=1;strokeWidth=2;" vertex="1" parent="5MMaR8HTmtrozJFYy1v1-1">
          <mxGeometry x="630" y="20" width="100" height="30" as="geometry" />
        </mxCell>
        <mxCell id="yfawPDBMTOWphZqOjl_f-4" value="" style="shape=image;html=1;verticalAlign=top;verticalLabelPosition=bottom;labelBackgroundColor=#ffffff;imageAspect=0;aspect=fixed;image=https://cdn4.iconfinder.com/data/icons/wirecons-free-vector-icons/32/add-128.png;strokeWidth=2;" vertex="1" parent="5MMaR8HTmtrozJFYy1v1-1">
          <mxGeometry x="640" y="25" width="20" height="20" as="geometry" />
        </mxCell>
        <mxCell id="yfawPDBMTOWphZqOjl_f-7" value="" style="html=1;verticalLabelPosition=bottom;align=center;labelBackgroundColor=#ffffff;verticalAlign=top;strokeWidth=2;strokeColor=#0080F0;shadow=0;dashed=0;shape=mxgraph.ios7.icons.looking_glass;" vertex="1" parent="5MMaR8HTmtrozJFYy1v1-1">
          <mxGeometry x="455" y="17.5" width="20" height="30" as="geometry" />
        </mxCell>
        <mxCell id="yfawPDBMTOWphZqOjl_f-8" value="" style="rounded=1;whiteSpace=wrap;html=1;strokeWidth=2;fillColor=none;" vertex="1" parent="5MMaR8HTmtrozJFYy1v1-1">
          <mxGeometry x="250" y="12.5" width="240" height="40" as="geometry" />
        </mxCell>
      </root>
    </mxGraphModel>
  </diagram>
  <diagram id="Q8VpoY2TLXDn-O0lW1eY" name="Comapnaies">
    <mxGraphModel dx="965" dy="471" grid="1" gridSize="10" guides="1" tooltips="1" connect="1" arrows="1" fold="1" page="1" pageScale="1" pageWidth="850" pageHeight="1100" math="0" shadow="0">
      <root>
        <mxCell id="I5g-fMdhhFbiZRcRLyQD-0" />
        <mxCell id="I5g-fMdhhFbiZRcRLyQD-1" parent="I5g-fMdhhFbiZRcRLyQD-0" />
      </root>
    </mxGraphModel>
  </diagram>
  <diagram id="j2iwCiftu8ltdcmABPxE" name="Add Deals">
    <mxGraphModel dx="965" dy="471" grid="1" gridSize="10" guides="1" tooltips="1" connect="1" arrows="1" fold="1" page="1" pageScale="1" pageWidth="850" pageHeight="1100" math="0" shadow="0">
      <root>
        <mxCell id="9-aT-5_jcWgXk_eyrc63-0" />
        <mxCell id="9-aT-5_jcWgXk_eyrc63-1" parent="9-aT-5_jcWgXk_eyrc63-0" />
        <mxCell id="nbkxBVkJuiFVUa7VOJ3I-18" value="" style="rounded=0;whiteSpace=wrap;html=1;strokeWidth=2;fillColor=none;" vertex="1" parent="9-aT-5_jcWgXk_eyrc63-1">
          <mxGeometry x="200" y="110" width="400" height="500" as="geometry" />
        </mxCell>
        <mxCell id="9-aT-5_jcWgXk_eyrc63-2" value="" style="rounded=1;whiteSpace=wrap;html=1;strokeWidth=2;fillColor=none;" vertex="1" parent="9-aT-5_jcWgXk_eyrc63-1">
          <mxGeometry x="310" y="150" width="220" height="40" as="geometry" />
        </mxCell>
        <mxCell id="9-aT-5_jcWgXk_eyrc63-3" value="&lt;font style=&quot;font-size: 15px&quot; face=&quot;Verdana&quot;&gt;&lt;b&gt;Deal Name&lt;/b&gt;&lt;/font&gt;" style="text;html=1;align=center;verticalAlign=middle;resizable=0;points=[];autosize=1;" vertex="1" parent="9-aT-5_jcWgXk_eyrc63-1">
          <mxGeometry x="210" y="160" width="90" height="20" as="geometry" />
        </mxCell>
        <mxCell id="9-aT-5_jcWgXk_eyrc63-4" value="" style="rounded=1;whiteSpace=wrap;html=1;strokeWidth=2;fillColor=none;" vertex="1" parent="9-aT-5_jcWgXk_eyrc63-1">
          <mxGeometry x="310" y="230" width="220" height="40" as="geometry" />
        </mxCell>
        <mxCell id="9-aT-5_jcWgXk_eyrc63-5" value="&lt;font face=&quot;Verdana&quot;&gt;&lt;span style=&quot;font-size: 15px&quot;&gt;&lt;b&gt;Amount&lt;/b&gt;&lt;/span&gt;&lt;/font&gt;" style="text;html=1;align=center;verticalAlign=middle;resizable=0;points=[];autosize=1;" vertex="1" parent="9-aT-5_jcWgXk_eyrc63-1">
          <mxGeometry x="220" y="240" width="70" height="20" as="geometry" />
        </mxCell>
        <mxCell id="9-aT-5_jcWgXk_eyrc63-6" value="" style="rounded=1;whiteSpace=wrap;html=1;strokeWidth=2;fillColor=none;" vertex="1" parent="9-aT-5_jcWgXk_eyrc63-1">
          <mxGeometry x="310" y="310" width="220" height="40" as="geometry" />
        </mxCell>
        <mxCell id="9-aT-5_jcWgXk_eyrc63-7" value="&lt;font style=&quot;font-size: 15px&quot; face=&quot;Verdana&quot;&gt;&lt;b&gt;Contact&lt;/b&gt;&lt;/font&gt;" style="text;html=1;align=center;verticalAlign=middle;resizable=0;points=[];autosize=1;" vertex="1" parent="9-aT-5_jcWgXk_eyrc63-1">
          <mxGeometry x="220" y="320" width="70" height="20" as="geometry" />
        </mxCell>
        <mxCell id="nbkxBVkJuiFVUa7VOJ3I-14" style="edgeStyle=orthogonalEdgeStyle;rounded=0;orthogonalLoop=1;jettySize=auto;html=1;exitX=1;exitY=0.5;exitDx=0;exitDy=0;entryX=0.501;entryY=-0.098;entryDx=0;entryDy=0;entryPerimeter=0;" edge="1" parent="9-aT-5_jcWgXk_eyrc63-1" source="9-aT-5_jcWgXk_eyrc63-8" target="nbkxBVkJuiFVUa7VOJ3I-4">
          <mxGeometry relative="1" as="geometry">
            <Array as="points">
              <mxPoint x="690" y="410" />
              <mxPoint x="690" y="260" />
              <mxPoint x="760" y="260" />
            </Array>
          </mxGeometry>
        </mxCell>
        <mxCell id="9-aT-5_jcWgXk_eyrc63-8" value="" style="rounded=1;whiteSpace=wrap;html=1;strokeWidth=2;fillColor=none;" vertex="1" parent="9-aT-5_jcWgXk_eyrc63-1">
          <mxGeometry x="310" y="390" width="220" height="40" as="geometry" />
        </mxCell>
        <mxCell id="9-aT-5_jcWgXk_eyrc63-9" value="&lt;font style=&quot;font-size: 15px&quot; face=&quot;Verdana&quot;&gt;&lt;b&gt;Stage&lt;/b&gt;&lt;/font&gt;" style="text;html=1;align=center;verticalAlign=middle;resizable=0;points=[];autosize=1;" vertex="1" parent="9-aT-5_jcWgXk_eyrc63-1">
          <mxGeometry x="230" y="400" width="50" height="20" as="geometry" />
        </mxCell>
        <mxCell id="9-aT-5_jcWgXk_eyrc63-10" value="" style="rounded=1;whiteSpace=wrap;html=1;strokeWidth=2;fillColor=none;" vertex="1" parent="9-aT-5_jcWgXk_eyrc63-1">
          <mxGeometry x="310" y="470" width="220" height="40" as="geometry" />
        </mxCell>
        <mxCell id="9-aT-5_jcWgXk_eyrc63-11" value="&lt;font style=&quot;font-size: 15px&quot; face=&quot;Verdana&quot;&gt;&lt;b&gt;Closing Date&lt;/b&gt;&lt;/font&gt;" style="text;html=1;align=center;verticalAlign=middle;resizable=0;points=[];autosize=1;" vertex="1" parent="9-aT-5_jcWgXk_eyrc63-1">
          <mxGeometry x="205" y="480" width="100" height="20" as="geometry" />
        </mxCell>
        <mxCell id="nbkxBVkJuiFVUa7VOJ3I-0" value="" style="shape=image;html=1;verticalAlign=top;verticalLabelPosition=bottom;labelBackgroundColor=#ffffff;imageAspect=0;aspect=fixed;image=https://cdn1.iconfinder.com/data/icons/material-core/10/arrow-drop-down-128.png;strokeWidth=2;fillColor=none;" vertex="1" parent="9-aT-5_jcWgXk_eyrc63-1">
          <mxGeometry x="500" y="400" width="20" height="20" as="geometry" />
        </mxCell>
        <mxCell id="nbkxBVkJuiFVUa7VOJ3I-1" value="" style="shape=image;html=1;verticalAlign=top;verticalLabelPosition=bottom;labelBackgroundColor=#ffffff;imageAspect=0;aspect=fixed;image=https://cdn4.iconfinder.com/data/icons/evil-icons-user-interface/64/plus-128.png;strokeWidth=2;fillColor=none;" vertex="1" parent="9-aT-5_jcWgXk_eyrc63-1">
          <mxGeometry x="500" y="320" width="20" height="20" as="geometry" />
        </mxCell>
        <mxCell id="nbkxBVkJuiFVUa7VOJ3I-2" value="" style="shape=image;html=1;verticalAlign=top;verticalLabelPosition=bottom;labelBackgroundColor=#ffffff;imageAspect=0;aspect=fixed;image=https://cdn0.iconfinder.com/data/icons/finance-android-l-lollipop-icon-pack/24/money_bag-128.png;strokeWidth=2;fillColor=none;" vertex="1" parent="9-aT-5_jcWgXk_eyrc63-1">
          <mxGeometry x="500" y="241" width="18" height="18" as="geometry" />
        </mxCell>
        <mxCell id="nbkxBVkJuiFVUa7VOJ3I-3" value="" style="shape=table;html=1;whiteSpace=wrap;startSize=0;container=1;collapsible=0;childLayout=tableLayout;" vertex="1" parent="9-aT-5_jcWgXk_eyrc63-1">
          <mxGeometry x="700" y="290" width="120" height="190" as="geometry" />
        </mxCell>
        <mxCell id="nbkxBVkJuiFVUa7VOJ3I-4" value="" style="shape=partialRectangle;html=1;whiteSpace=wrap;collapsible=0;dropTarget=0;pointerEvents=0;fillColor=none;top=0;left=0;bottom=0;right=0;points=[[0,0.5],[1,0.5]];portConstraint=eastwest;" vertex="1" parent="nbkxBVkJuiFVUa7VOJ3I-3">
          <mxGeometry width="120" height="38" as="geometry" />
        </mxCell>
        <mxCell id="nbkxBVkJuiFVUa7VOJ3I-5" value="Need Analysis" style="shape=partialRectangle;html=1;whiteSpace=wrap;connectable=0;overflow=hidden;fillColor=none;top=0;left=0;bottom=0;right=0;" vertex="1" parent="nbkxBVkJuiFVUa7VOJ3I-4">
          <mxGeometry width="120" height="38" as="geometry" />
        </mxCell>
        <mxCell id="nbkxBVkJuiFVUa7VOJ3I-6" value="" style="shape=partialRectangle;html=1;whiteSpace=wrap;collapsible=0;dropTarget=0;pointerEvents=0;fillColor=none;top=0;left=0;bottom=0;right=0;points=[[0,0.5],[1,0.5]];portConstraint=eastwest;" vertex="1" parent="nbkxBVkJuiFVUa7VOJ3I-3">
          <mxGeometry y="38" width="120" height="38" as="geometry" />
        </mxCell>
        <mxCell id="nbkxBVkJuiFVUa7VOJ3I-7" value="Negotiation" style="shape=partialRectangle;html=1;whiteSpace=wrap;connectable=0;overflow=hidden;fillColor=none;top=0;left=0;bottom=0;right=0;" vertex="1" parent="nbkxBVkJuiFVUa7VOJ3I-6">
          <mxGeometry width="120" height="38" as="geometry" />
        </mxCell>
        <mxCell id="nbkxBVkJuiFVUa7VOJ3I-8" value="" style="shape=partialRectangle;html=1;whiteSpace=wrap;collapsible=0;dropTarget=0;pointerEvents=0;fillColor=none;top=0;left=0;bottom=0;right=0;points=[[0,0.5],[1,0.5]];portConstraint=eastwest;" vertex="1" parent="nbkxBVkJuiFVUa7VOJ3I-3">
          <mxGeometry y="76" width="120" height="38" as="geometry" />
        </mxCell>
        <mxCell id="nbkxBVkJuiFVUa7VOJ3I-9" value="Invoice" style="shape=partialRectangle;html=1;whiteSpace=wrap;connectable=0;overflow=hidden;fillColor=none;top=0;left=0;bottom=0;right=0;" vertex="1" parent="nbkxBVkJuiFVUa7VOJ3I-8">
          <mxGeometry width="120" height="38" as="geometry" />
        </mxCell>
        <mxCell id="nbkxBVkJuiFVUa7VOJ3I-10" value="" style="shape=partialRectangle;html=1;whiteSpace=wrap;collapsible=0;dropTarget=0;pointerEvents=0;fillColor=none;top=0;left=0;bottom=0;right=0;points=[[0,0.5],[1,0.5]];portConstraint=eastwest;" vertex="1" parent="nbkxBVkJuiFVUa7VOJ3I-3">
          <mxGeometry y="114" width="120" height="38" as="geometry" />
        </mxCell>
        <mxCell id="nbkxBVkJuiFVUa7VOJ3I-11" value="Deal Lost" style="shape=partialRectangle;html=1;whiteSpace=wrap;connectable=0;overflow=hidden;fillColor=none;top=0;left=0;bottom=0;right=0;" vertex="1" parent="nbkxBVkJuiFVUa7VOJ3I-10">
          <mxGeometry width="120" height="38" as="geometry" />
        </mxCell>
        <mxCell id="nbkxBVkJuiFVUa7VOJ3I-12" value="" style="shape=partialRectangle;html=1;whiteSpace=wrap;collapsible=0;dropTarget=0;pointerEvents=0;fillColor=none;top=0;left=0;bottom=0;right=0;points=[[0,0.5],[1,0.5]];portConstraint=eastwest;" vertex="1" parent="nbkxBVkJuiFVUa7VOJ3I-3">
          <mxGeometry y="152" width="120" height="38" as="geometry" />
        </mxCell>
        <mxCell id="nbkxBVkJuiFVUa7VOJ3I-13" value="Deal Win" style="shape=partialRectangle;html=1;whiteSpace=wrap;connectable=0;overflow=hidden;fillColor=none;top=0;left=0;bottom=0;right=0;" vertex="1" parent="nbkxBVkJuiFVUa7VOJ3I-12">
          <mxGeometry width="120" height="38" as="geometry" />
        </mxCell>
        <mxCell id="nbkxBVkJuiFVUa7VOJ3I-15" value="" style="html=1;verticalLabelPosition=bottom;align=center;labelBackgroundColor=#ffffff;verticalAlign=top;strokeWidth=2;strokeColor=#0080F0;shadow=0;dashed=0;shape=mxgraph.ios7.icons.calendar;fillColor=none;" vertex="1" parent="9-aT-5_jcWgXk_eyrc63-1">
          <mxGeometry x="498" y="477.5" width="20" height="25" as="geometry" />
        </mxCell>
        <mxCell id="nbkxBVkJuiFVUa7VOJ3I-17" value="&lt;font style=&quot;font-size: 17px&quot;&gt;&lt;b&gt;Create New Deal&lt;/b&gt;&lt;/font&gt;" style="text;html=1;align=center;verticalAlign=middle;resizable=0;points=[];autosize=1;" vertex="1" parent="9-aT-5_jcWgXk_eyrc63-1">
          <mxGeometry x="190" y="70" width="150" height="20" as="geometry" />
        </mxCell>
        <mxCell id="nbkxBVkJuiFVUa7VOJ3I-19" value="" style="rounded=1;whiteSpace=wrap;html=1;strokeWidth=2;fillColor=none;" vertex="1" parent="9-aT-5_jcWgXk_eyrc63-1">
          <mxGeometry x="310" y="540" width="220" height="40" as="geometry" />
        </mxCell>
        <mxCell id="nbkxBVkJuiFVUa7VOJ3I-20" value="&lt;font style=&quot;font-size: 15px&quot; face=&quot;Verdana&quot;&gt;&lt;b&gt;Product&lt;/b&gt;&lt;/font&gt;" style="text;html=1;align=center;verticalAlign=middle;resizable=0;points=[];autosize=1;" vertex="1" parent="9-aT-5_jcWgXk_eyrc63-1">
          <mxGeometry x="220" y="550" width="70" height="20" as="geometry" />
        </mxCell>
        <mxCell id="nbkxBVkJuiFVUa7VOJ3I-22" value="" style="shape=image;html=1;verticalAlign=top;verticalLabelPosition=bottom;labelBackgroundColor=#ffffff;imageAspect=0;aspect=fixed;image=https://cdn4.iconfinder.com/data/icons/evil-icons-user-interface/64/plus-128.png;strokeWidth=2;fillColor=none;" vertex="1" parent="9-aT-5_jcWgXk_eyrc63-1">
          <mxGeometry x="500" y="550" width="20" height="20" as="geometry" />
        </mxCell>
      </root>
    </mxGraphModel>
  </diagram>
</mxfile>
